<svg width="32" height="32" viewBox="0 0 32 32" fill="none" xmlns="http://www.w3.org/2000/svg">
<path d="M24.9761 20.863C25.5827 20.8429 26.1696 20.6427 26.6621 20.288V22.024C26.6621 23.689 25.6701 25.172 24.1621 25.788C24.4868 25.0914 24.7043 24.3497 24.8071 23.588L24.9761 20.863Z" fill="url(#paint0_radial_1512_304)"/>
<path d="M6.84911 20.863C6.24216 20.8431 5.65487 20.6429 5.16211 20.288V22.024C5.16211 23.689 6.15411 25.172 7.66211 25.788C7.33774 25.0913 7.12061 24.3496 7.01811 23.588L6.84911 20.863Z" fill="url(#paint1_radial_1512_304)"/>
<g filter="url(#filter0_ii_1512_304)">
<path d="M6.91717 23.688C7.14785 25.4455 8.01012 27.059 9.34307 28.2275C10.676 29.3959 12.3886 30.0395 14.1612 30.038H17.6792C19.4517 30.0395 21.1643 29.3959 22.4973 28.2275C23.8302 27.059 24.6925 25.4455 24.9232 23.688C25.1432 20.176 25.3642 16.678 25.5282 13.168C25.5082 11.738 24.3802 10.558 22.9562 10.498H20.3462C19.4724 10.4966 18.6177 10.2417 17.8859 9.7642C17.1541 9.28673 16.5765 8.6072 16.2232 7.808C16.1316 7.57817 15.9734 7.38103 15.7688 7.242C15.5641 7.10297 15.3226 7.02843 15.0752 7.028H12.7022C9.26117 7.028 6.47217 9.848 6.47217 13.328C6.47217 16.798 6.68917 20.21 6.91717 23.688Z" fill="url(#paint2_radial_1512_304)"/>
</g>
<path d="M6.91717 23.688C7.14785 25.4455 8.01012 27.059 9.34307 28.2275C10.676 29.3959 12.3886 30.0395 14.1612 30.038H17.6792C19.4517 30.0395 21.1643 29.3959 22.4973 28.2275C23.8302 27.059 24.6925 25.4455 24.9232 23.688C25.1432 20.176 25.3642 16.678 25.5282 13.168C25.5082 11.738 24.3802 10.558 22.9562 10.498H20.3462C19.4724 10.4966 18.6177 10.2417 17.8859 9.7642C17.1541 9.28673 16.5765 8.6072 16.2232 7.808C16.1316 7.57817 15.9734 7.38103 15.7688 7.242C15.5641 7.10297 15.3226 7.02843 15.0752 7.028H12.7022C9.26117 7.028 6.47217 9.848 6.47217 13.328C6.47217 16.798 6.68917 20.21 6.91717 23.688Z" fill="url(#paint3_linear_1512_304)"/>
<path d="M6.91717 23.688C7.14785 25.4455 8.01012 27.059 9.34307 28.2275C10.676 29.3959 12.3886 30.0395 14.1612 30.038H17.6792C19.4517 30.0395 21.1643 29.3959 22.4973 28.2275C23.8302 27.059 24.6925 25.4455 24.9232 23.688C25.1432 20.176 25.3642 16.678 25.5282 13.168C25.5082 11.738 24.3802 10.558 22.9562 10.498H20.3462C19.4724 10.4966 18.6177 10.2417 17.8859 9.7642C17.1541 9.28673 16.5765 8.6072 16.2232 7.808C16.1316 7.57817 15.9734 7.38103 15.7688 7.242C15.5641 7.10297 15.3226 7.02843 15.0752 7.028H12.7022C9.26117 7.028 6.47217 9.848 6.47217 13.328C6.47217 16.798 6.68917 20.21 6.91717 23.688Z" fill="url(#paint4_radial_1512_304)"/>
<path d="M6.91717 23.688C7.14785 25.4455 8.01012 27.059 9.34307 28.2275C10.676 29.3959 12.3886 30.0395 14.1612 30.038H17.6792C19.4517 30.0395 21.1643 29.3959 22.4973 28.2275C23.8302 27.059 24.6925 25.4455 24.9232 23.688C25.1432 20.176 25.3642 16.678 25.5282 13.168C25.5082 11.738 24.3802 10.558 22.9562 10.498H20.3462C19.4724 10.4966 18.6177 10.2417 17.8859 9.7642C17.1541 9.28673 16.5765 8.6072 16.2232 7.808C16.1316 7.57817 15.9734 7.38103 15.7688 7.242C15.5641 7.10297 15.3226 7.02843 15.0752 7.028H12.7022C9.26117 7.028 6.47217 9.848 6.47217 13.328C6.47217 16.798 6.68917 20.21 6.91717 23.688Z" fill="url(#paint5_radial_1512_304)"/>
<path d="M6.91717 23.688C7.14785 25.4455 8.01012 27.059 9.34307 28.2275C10.676 29.3959 12.3886 30.0395 14.1612 30.038H17.6792C19.4517 30.0395 21.1643 29.3959 22.4973 28.2275C23.8302 27.059 24.6925 25.4455 24.9232 23.688C25.1432 20.176 25.3642 16.678 25.5282 13.168C25.5082 11.738 24.3802 10.558 22.9562 10.498H20.3462C19.4724 10.4966 18.6177 10.2417 17.8859 9.7642C17.1541 9.28673 16.5765 8.6072 16.2232 7.808C16.1316 7.57817 15.9734 7.38103 15.7688 7.242C15.5641 7.10297 15.3226 7.02843 15.0752 7.028H12.7022C9.26117 7.028 6.47217 9.848 6.47217 13.328C6.47217 16.798 6.68917 20.21 6.91717 23.688Z" fill="url(#paint6_radial_1512_304)"/>
<path d="M6.91717 23.688C7.14785 25.4455 8.01012 27.059 9.34307 28.2275C10.676 29.3959 12.3886 30.0395 14.1612 30.038H17.6792C19.4517 30.0395 21.1643 29.3959 22.4973 28.2275C23.8302 27.059 24.6925 25.4455 24.9232 23.688C25.1432 20.176 25.3642 16.678 25.5282 13.168C25.5082 11.738 24.3802 10.558 22.9562 10.498H20.3462C19.4724 10.4966 18.6177 10.2417 17.8859 9.7642C17.1541 9.28673 16.5765 8.6072 16.2232 7.808C16.1316 7.57817 15.9734 7.38103 15.7688 7.242C15.5641 7.10297 15.3226 7.02843 15.0752 7.028H12.7022C9.26117 7.028 6.47217 9.848 6.47217 13.328C6.47217 16.798 6.68917 20.21 6.91717 23.688Z" fill="url(#paint7_radial_1512_304)"/>
<path d="M6.91717 23.688C7.14785 25.4455 8.01012 27.059 9.34307 28.2275C10.676 29.3959 12.3886 30.0395 14.1612 30.038H17.6792C19.4517 30.0395 21.1643 29.3959 22.4973 28.2275C23.8302 27.059 24.6925 25.4455 24.9232 23.688C25.1432 20.176 25.3642 16.678 25.5282 13.168C25.5082 11.738 24.3802 10.558 22.9562 10.498H20.3462C19.4724 10.4966 18.6177 10.2417 17.8859 9.7642C17.1541 9.28673 16.5765 8.6072 16.2232 7.808C16.1316 7.57817 15.9734 7.38103 15.7688 7.242C15.5641 7.10297 15.3226 7.02843 15.0752 7.028H12.7022C9.26117 7.028 6.47217 9.848 6.47217 13.328C6.47217 16.798 6.68917 20.21 6.91717 23.688Z" fill="url(#paint8_radial_1512_304)"/>
<path d="M6.91717 23.688C7.14785 25.4455 8.01012 27.059 9.34307 28.2275C10.676 29.3959 12.3886 30.0395 14.1612 30.038H17.6792C19.4517 30.0395 21.1643 29.3959 22.4973 28.2275C23.8302 27.059 24.6925 25.4455 24.9232 23.688C25.1432 20.176 25.3642 16.678 25.5282 13.168C25.5082 11.738 24.3802 10.558 22.9562 10.498H20.3462C19.4724 10.4966 18.6177 10.2417 17.8859 9.7642C17.1541 9.28673 16.5765 8.6072 16.2232 7.808C16.1316 7.57817 15.9734 7.38103 15.7688 7.242C15.5641 7.10297 15.3226 7.02843 15.0752 7.028H12.7022C9.26117 7.028 6.47217 9.848 6.47217 13.328C6.47217 16.798 6.68917 20.21 6.91717 23.688Z" fill="url(#paint9_radial_1512_304)"/>
<g filter="url(#filter1_f_1512_304)">
<path d="M15.1639 17.556L14.0629 20.983C13.8739 21.689 14.3259 22.393 14.9659 22.393H16.3299C16.9699 22.393 17.4209 21.678 17.2329 20.983L16.3109 17.556C16.1129 16.796 15.3709 16.796 15.1639 17.556Z" fill="#D69790"/>
</g>
<g filter="url(#filter2_f_1512_304)">
<path d="M15.2003 17.2L14.2093 20.628C14.0073 21.333 14.4923 22.038 15.1793 22.038H16.6453C17.3333 22.038 17.8183 21.322 17.6163 20.628L16.6263 17.201C16.4133 16.441 15.4223 16.44 15.2003 17.2Z" fill="#F6BFAB"/>
<path d="M15.2003 17.2L14.2093 20.628C14.0073 21.333 14.4923 22.038 15.1793 22.038H16.6453C17.3333 22.038 17.8183 21.322 17.6163 20.628L16.6263 17.201C16.4133 16.441 15.4223 16.44 15.2003 17.2Z" fill="url(#paint10_linear_1512_304)"/>
<path d="M15.2003 17.2L14.2093 20.628C14.0073 21.333 14.4923 22.038 15.1793 22.038H16.6453C17.3333 22.038 17.8183 21.322 17.6163 20.628L16.6263 17.201C16.4133 16.441 15.4223 16.44 15.2003 17.2Z" fill="url(#paint11_radial_1512_304)"/>
<path d="M15.2003 17.2L14.2093 20.628C14.0073 21.333 14.4923 22.038 15.1793 22.038H16.6453C17.3333 22.038 17.8183 21.322 17.6163 20.628L16.6263 17.201C16.4133 16.441 15.4223 16.44 15.2003 17.2Z" fill="url(#paint12_linear_1512_304)"/>
<path d="M15.2003 17.2L14.2093 20.628C14.0073 21.333 14.4923 22.038 15.1793 22.038H16.6453C17.3333 22.038 17.8183 21.322 17.6163 20.628L16.6263 17.201C16.4133 16.441 15.4223 16.44 15.2003 17.2Z" fill="url(#paint13_radial_1512_304)"/>
<path d="M15.2003 17.2L14.2093 20.628C14.0073 21.333 14.4923 22.038 15.1793 22.038H16.6453C17.3333 22.038 17.8183 21.322 17.6163 20.628L16.6263 17.201C16.4133 16.441 15.4223 16.44 15.2003 17.2Z" fill="url(#paint14_linear_1512_304)"/>
</g>
<g filter="url(#filter3_f_1512_304)">
<path d="M13.364 23.255C13.2942 23.2184 13.2143 23.2058 13.1367 23.219C13.059 23.2322 12.9878 23.2705 12.934 23.328C12.8787 23.3831 12.8447 23.4561 12.8381 23.5339C12.8315 23.6117 12.8527 23.6894 12.898 23.753C13.228 24.2497 13.6761 24.6568 14.2021 24.9378C14.7281 25.2188 15.3156 25.3649 15.912 25.363C16.5085 25.365 17.0962 25.219 17.6224 24.938C18.1486 24.657 18.5969 24.2499 18.927 23.753C18.9721 23.6887 18.9932 23.6105 18.9864 23.5323C18.9797 23.454 18.9455 23.3806 18.89 23.325C18.8359 23.2685 18.7649 23.2312 18.6877 23.2186C18.6105 23.2059 18.5313 23.2187 18.462 23.255C17.6733 23.6583 16.7978 23.8652 15.912 23.858C14.978 23.858 14.1 23.639 13.364 23.255Z" stroke="url(#paint15_linear_1512_304)" stroke-width="0.15"/>
</g>
<path d="M15.9121 23.933C15.0145 23.9389 14.1286 23.729 13.3291 23.321C13.0741 23.191 12.7991 23.479 12.9601 23.711C13.2833 24.1976 13.7221 24.5964 14.2373 24.8716C14.7525 25.1468 15.328 25.2899 15.9121 25.288C16.4962 25.2899 17.0717 25.1468 17.5869 24.8716C18.1021 24.5964 18.5409 24.1976 18.8641 23.711C19.0251 23.469 18.7511 23.191 18.4951 23.321C17.696 23.7301 16.8098 23.94 15.9121 23.933Z" fill="url(#paint16_radial_1512_304)"/>
<g filter="url(#filter4_ii_1512_304)">
<path d="M24.9643 6.148C25.9233 6.478 26.7843 7.148 27.3273 8.108C27.7421 8.83176 27.9436 9.65813 27.9086 10.4916C27.8736 11.3251 27.6034 12.1316 27.1293 12.818C26.802 13.2987 26.6265 13.8665 26.6253 14.448V16.663C26.2498 16.4118 25.8262 16.2415 25.3813 16.163L25.5273 13.168C25.5073 11.738 24.3803 10.558 22.9573 10.498H20.3463C19.4725 10.4966 18.6178 10.2417 17.886 9.7642C17.1542 9.28673 16.5766 8.6072 16.2233 7.808C16.1317 7.57817 15.9735 7.38103 15.7689 7.242C15.5642 7.10297 15.3226 7.02843 15.0753 7.028H12.7023C9.26127 7.028 6.47227 9.848 6.47227 13.328L6.53027 16.194C6.05627 16.264 5.56127 16.422 5.18727 16.686V14.448C5.18727 13.868 5.00927 13.298 4.68327 12.818C4.23153 12.1527 3.9682 11.3776 3.9212 10.5748C3.87419 9.77202 4.04526 8.97147 4.41627 8.258C4.92844 7.27647 5.79407 6.52593 6.83827 6.158C7.90862 5.78096 8.81883 5.05096 9.41927 4.088C9.80777 3.46184 10.3494 2.94501 10.9932 2.58633C11.6369 2.22764 12.3614 2.03893 13.0983 2.038C13.7013 2.038 14.2743 2.168 14.8083 2.388C15.5203 2.698 16.3213 2.698 17.0333 2.388C17.5713 2.15913 18.1496 2.04013 18.7343 2.038C20.3063 2.038 21.6813 2.888 22.4423 4.148C23.0163 5.098 23.9163 5.788 24.9643 6.148Z" fill="url(#paint17_linear_1512_304)"/>
<path d="M24.9643 6.148C25.9233 6.478 26.7843 7.148 27.3273 8.108C27.7421 8.83176 27.9436 9.65813 27.9086 10.4916C27.8736 11.3251 27.6034 12.1316 27.1293 12.818C26.802 13.2987 26.6265 13.8665 26.6253 14.448V16.663C26.2498 16.4118 25.8262 16.2415 25.3813 16.163L25.5273 13.168C25.5073 11.738 24.3803 10.558 22.9573 10.498H20.3463C19.4725 10.4966 18.6178 10.2417 17.886 9.7642C17.1542 9.28673 16.5766 8.6072 16.2233 7.808C16.1317 7.57817 15.9735 7.38103 15.7689 7.242C15.5642 7.10297 15.3226 7.02843 15.0753 7.028H12.7023C9.26127 7.028 6.47227 9.848 6.47227 13.328L6.53027 16.194C6.05627 16.264 5.56127 16.422 5.18727 16.686V14.448C5.18727 13.868 5.00927 13.298 4.68327 12.818C4.23153 12.1527 3.9682 11.3776 3.9212 10.5748C3.87419 9.77202 4.04526 8.97147 4.41627 8.258C4.92844 7.27647 5.79407 6.52593 6.83827 6.158C7.90862 5.78096 8.81883 5.05096 9.41927 4.088C9.80777 3.46184 10.3494 2.94501 10.9932 2.58633C11.6369 2.22764 12.3614 2.03893 13.0983 2.038C13.7013 2.038 14.2743 2.168 14.8083 2.388C15.5203 2.698 16.3213 2.698 17.0333 2.388C17.5713 2.15913 18.1496 2.04013 18.7343 2.038C20.3063 2.038 21.6813 2.888 22.4423 4.148C23.0163 5.098 23.9163 5.788 24.9643 6.148Z" fill="url(#paint18_radial_1512_304)"/>
<path d="M24.9643 6.148C25.9233 6.478 26.7843 7.148 27.3273 8.108C27.7421 8.83176 27.9436 9.65813 27.9086 10.4916C27.8736 11.3251 27.6034 12.1316 27.1293 12.818C26.802 13.2987 26.6265 13.8665 26.6253 14.448V16.663C26.2498 16.4118 25.8262 16.2415 25.3813 16.163L25.5273 13.168C25.5073 11.738 24.3803 10.558 22.9573 10.498H20.3463C19.4725 10.4966 18.6178 10.2417 17.886 9.7642C17.1542 9.28673 16.5766 8.6072 16.2233 7.808C16.1317 7.57817 15.9735 7.38103 15.7689 7.242C15.5642 7.10297 15.3226 7.02843 15.0753 7.028H12.7023C9.26127 7.028 6.47227 9.848 6.47227 13.328L6.53027 16.194C6.05627 16.264 5.56127 16.422 5.18727 16.686V14.448C5.18727 13.868 5.00927 13.298 4.68327 12.818C4.23153 12.1527 3.9682 11.3776 3.9212 10.5748C3.87419 9.77202 4.04526 8.97147 4.41627 8.258C4.92844 7.27647 5.79407 6.52593 6.83827 6.158C7.90862 5.78096 8.81883 5.05096 9.41927 4.088C9.80777 3.46184 10.3494 2.94501 10.9932 2.58633C11.6369 2.22764 12.3614 2.03893 13.0983 2.038C13.7013 2.038 14.2743 2.168 14.8083 2.388C15.5203 2.698 16.3213 2.698 17.0333 2.388C17.5713 2.15913 18.1496 2.04013 18.7343 2.038C20.3063 2.038 21.6813 2.888 22.4423 4.148C23.0163 5.098 23.9163 5.788 24.9643 6.148Z" fill="url(#paint19_radial_1512_304)"/>
<path d="M24.9643 6.148C25.9233 6.478 26.7843 7.148 27.3273 8.108C27.7421 8.83176 27.9436 9.65813 27.9086 10.4916C27.8736 11.3251 27.6034 12.1316 27.1293 12.818C26.802 13.2987 26.6265 13.8665 26.6253 14.448V16.663C26.2498 16.4118 25.8262 16.2415 25.3813 16.163L25.5273 13.168C25.5073 11.738 24.3803 10.558 22.9573 10.498H20.3463C19.4725 10.4966 18.6178 10.2417 17.886 9.7642C17.1542 9.28673 16.5766 8.6072 16.2233 7.808C16.1317 7.57817 15.9735 7.38103 15.7689 7.242C15.5642 7.10297 15.3226 7.02843 15.0753 7.028H12.7023C9.26127 7.028 6.47227 9.848 6.47227 13.328L6.53027 16.194C6.05627 16.264 5.56127 16.422 5.18727 16.686V14.448C5.18727 13.868 5.00927 13.298 4.68327 12.818C4.23153 12.1527 3.9682 11.3776 3.9212 10.5748C3.87419 9.77202 4.04526 8.97147 4.41627 8.258C4.92844 7.27647 5.79407 6.52593 6.83827 6.158C7.90862 5.78096 8.81883 5.05096 9.41927 4.088C9.80777 3.46184 10.3494 2.94501 10.9932 2.58633C11.6369 2.22764 12.3614 2.03893 13.0983 2.038C13.7013 2.038 14.2743 2.168 14.8083 2.388C15.5203 2.698 16.3213 2.698 17.0333 2.388C17.5713 2.15913 18.1496 2.04013 18.7343 2.038C20.3063 2.038 21.6813 2.888 22.4423 4.148C23.0163 5.098 23.9163 5.788 24.9643 6.148Z" fill="url(#paint20_radial_1512_304)"/>
<path d="M24.9643 6.148C25.9233 6.478 26.7843 7.148 27.3273 8.108C27.7421 8.83176 27.9436 9.65813 27.9086 10.4916C27.8736 11.3251 27.6034 12.1316 27.1293 12.818C26.802 13.2987 26.6265 13.8665 26.6253 14.448V16.663C26.2498 16.4118 25.8262 16.2415 25.3813 16.163L25.5273 13.168C25.5073 11.738 24.3803 10.558 22.9573 10.498H20.3463C19.4725 10.4966 18.6178 10.2417 17.886 9.7642C17.1542 9.28673 16.5766 8.6072 16.2233 7.808C16.1317 7.57817 15.9735 7.38103 15.7689 7.242C15.5642 7.10297 15.3226 7.02843 15.0753 7.028H12.7023C9.26127 7.028 6.47227 9.848 6.47227 13.328L6.53027 16.194C6.05627 16.264 5.56127 16.422 5.18727 16.686V14.448C5.18727 13.868 5.00927 13.298 4.68327 12.818C4.23153 12.1527 3.9682 11.3776 3.9212 10.5748C3.87419 9.77202 4.04526 8.97147 4.41627 8.258C4.92844 7.27647 5.79407 6.52593 6.83827 6.158C7.90862 5.78096 8.81883 5.05096 9.41927 4.088C9.80777 3.46184 10.3494 2.94501 10.9932 2.58633C11.6369 2.22764 12.3614 2.03893 13.0983 2.038C13.7013 2.038 14.2743 2.168 14.8083 2.388C15.5203 2.698 16.3213 2.698 17.0333 2.388C17.5713 2.15913 18.1496 2.04013 18.7343 2.038C20.3063 2.038 21.6813 2.888 22.4423 4.148C23.0163 5.098 23.9163 5.788 24.9643 6.148Z" fill="url(#paint21_radial_1512_304)"/>
</g>
<g filter="url(#filter5_i_1512_304)">
<path d="M22.8723 12.977C22.5453 12.693 22.1663 12.392 21.5903 12.21C21.0233 12.032 20.3133 11.984 19.3303 12.104C19.1941 12.1206 19.0701 12.1906 18.9855 12.2986C18.9009 12.4066 18.8627 12.5438 18.8793 12.68C18.8959 12.8162 18.9659 12.9402 19.0739 13.0248C19.1819 13.1094 19.3191 13.1476 19.4553 13.131C20.3523 13.021 20.9023 13.078 21.2803 13.197C21.6503 13.313 21.9003 13.502 22.1933 13.757C22.2445 13.8016 22.304 13.8356 22.3684 13.8572C22.4327 13.8788 22.5007 13.8875 22.5685 13.8828C22.6362 13.8781 22.7024 13.8602 22.7632 13.8299C22.824 13.7997 22.8782 13.7577 22.9228 13.7065C22.9674 13.6553 23.0014 13.5958 23.023 13.5314C23.0446 13.467 23.0533 13.399 23.0486 13.3313C23.0439 13.2636 23.0259 13.1974 22.9957 13.1366C22.9654 13.0758 22.9235 13.0216 22.8723 12.977Z" fill="#202020"/>
</g>
<g filter="url(#filter6_i_1512_304)">
<path d="M9.55288 12.774C10.531 12.2015 11.67 11.9661 12.7949 12.104C12.9311 12.1206 13.0551 12.1906 13.1397 12.2986C13.2243 12.4066 13.2625 12.5438 13.2459 12.68C13.2293 12.8162 13.1593 12.9402 13.0513 13.0248C12.9433 13.1094 12.8061 13.1476 12.6699 13.131C11.7731 13.0205 10.8649 13.2067 10.0839 13.661C10.0258 13.6961 9.96904 13.7334 9.91388 13.773L9.90788 13.777C9.79941 13.8609 9.66203 13.8984 9.52597 13.881C9.38991 13.8637 9.26632 13.793 9.18238 13.6845C9.09844 13.576 9.06103 13.4387 9.07837 13.3026C9.09572 13.1665 9.16641 13.0429 9.27488 12.959L9.55288 12.774Z" fill="#202020"/>
</g>
<g filter="url(#filter7_if_1512_304)">
<path d="M16.346 8.063C16.3024 7.97928 16.2614 7.89424 16.223 7.808C16.1315 7.57817 15.9732 7.38103 15.7686 7.242C15.564 7.10297 15.3224 7.02843 15.075 7.028H12.702C9.26099 7.028 6.47199 9.848 6.47199 13.328V13.841C5.83899 13.359 5.04199 12.341 5.04199 10.694C5.04199 8.696 6.49899 7.686 7.42799 7.041C7.69099 6.86 7.91099 6.707 8.04499 6.569C8.10746 6.50445 8.16946 6.43945 8.23099 6.374C8.88299 5.683 10.044 4.451 12.071 3.913C13.37 3.568 14.691 3.565 15.582 3.644C16.053 3.687 16.385 4.095 16.385 4.568V8.038L16.345 8.063H16.346Z" fill="#23181C"/>
<path d="M16.346 8.063C16.3024 7.97928 16.2614 7.89424 16.223 7.808C16.1315 7.57817 15.9732 7.38103 15.7686 7.242C15.564 7.10297 15.3224 7.02843 15.075 7.028H12.702C9.26099 7.028 6.47199 9.848 6.47199 13.328V13.841C5.83899 13.359 5.04199 12.341 5.04199 10.694C5.04199 8.696 6.49899 7.686 7.42799 7.041C7.69099 6.86 7.91099 6.707 8.04499 6.569C8.10746 6.50445 8.16946 6.43945 8.23099 6.374C8.88299 5.683 10.044 4.451 12.071 3.913C13.37 3.568 14.691 3.565 15.582 3.644C16.053 3.687 16.385 4.095 16.385 4.568V8.038L16.345 8.063H16.346Z" fill="url(#paint22_radial_1512_304)"/>
<path d="M16.346 8.063C16.3024 7.97928 16.2614 7.89424 16.223 7.808C16.1315 7.57817 15.9732 7.38103 15.7686 7.242C15.564 7.10297 15.3224 7.02843 15.075 7.028H12.702C9.26099 7.028 6.47199 9.848 6.47199 13.328V13.841C5.83899 13.359 5.04199 12.341 5.04199 10.694C5.04199 8.696 6.49899 7.686 7.42799 7.041C7.69099 6.86 7.91099 6.707 8.04499 6.569C8.10746 6.50445 8.16946 6.43945 8.23099 6.374C8.88299 5.683 10.044 4.451 12.071 3.913C13.37 3.568 14.691 3.565 15.582 3.644C16.053 3.687 16.385 4.095 16.385 4.568V8.038L16.345 8.063H16.346Z" fill="url(#paint23_radial_1512_304)"/>
</g>
<g filter="url(#filter8_f_1512_304)">
<path d="M25.6303 14.154L25.5773 12.977C25.5573 11.553 24.3803 10.379 22.9573 10.319H20.3463C19.5363 10.3188 18.7413 10.1008 18.0445 9.68765C17.3478 9.27454 16.7751 8.6816 16.3863 7.971C16.3863 7.971 16.0043 7.086 15.9203 5.791C15.8553 4.791 16.7603 4.073 17.7553 4.204C19.8213 4.478 22.6893 5.123 24.6603 6.408C27.9123 8.53 27.3433 12.353 25.6303 14.154Z" fill="#1F151B"/>
<path d="M25.6303 14.154L25.5773 12.977C25.5573 11.553 24.3803 10.379 22.9573 10.319H20.3463C19.5363 10.3188 18.7413 10.1008 18.0445 9.68765C17.3478 9.27454 16.7751 8.6816 16.3863 7.971C16.3863 7.971 16.0043 7.086 15.9203 5.791C15.8553 4.791 16.7603 4.073 17.7553 4.204C19.8213 4.478 22.6893 5.123 24.6603 6.408C27.9123 8.53 27.3433 12.353 25.6303 14.154Z" fill="url(#paint24_radial_1512_304)"/>
<path d="M25.6303 14.154L25.5773 12.977C25.5573 11.553 24.3803 10.379 22.9573 10.319H20.3463C19.5363 10.3188 18.7413 10.1008 18.0445 9.68765C17.3478 9.27454 16.7751 8.6816 16.3863 7.971C16.3863 7.971 16.0043 7.086 15.9203 5.791C15.8553 4.791 16.7603 4.073 17.7553 4.204C19.8213 4.478 22.6893 5.123 24.6603 6.408C27.9123 8.53 27.3433 12.353 25.6303 14.154Z" fill="url(#paint25_radial_1512_304)"/>
<path d="M25.6303 14.154L25.5773 12.977C25.5573 11.553 24.3803 10.379 22.9573 10.319H20.3463C19.5363 10.3188 18.7413 10.1008 18.0445 9.68765C17.3478 9.27454 16.7751 8.6816 16.3863 7.971C16.3863 7.971 16.0043 7.086 15.9203 5.791C15.8553 4.791 16.7603 4.073 17.7553 4.204C19.8213 4.478 22.6893 5.123 24.6603 6.408C27.9123 8.53 27.3433 12.353 25.6303 14.154Z" fill="url(#paint26_radial_1512_304)"/>
</g>
<path d="M20.3701 15.429C21.5881 15.429 22.6161 16.269 22.8961 17.403C22.915 17.4786 22.9164 17.5575 22.9001 17.6338C22.8838 17.71 22.8503 17.7815 22.8021 17.8427C22.754 17.904 22.6925 17.9535 22.6222 17.9873C22.552 18.0212 22.475 18.0385 22.3971 18.038H18.2371C18.1741 18.038 18.1119 18.0241 18.0548 17.9974C17.9978 17.9707 17.9473 17.9318 17.907 17.8835C17.8666 17.8351 17.8374 17.7785 17.8213 17.7176C17.8053 17.6567 17.8028 17.593 17.8141 17.531C17.9308 16.9389 18.2494 16.4056 18.7156 16.0222C19.1818 15.6389 19.7665 15.4292 20.3701 15.429Z" fill="white"/>
<path d="M19.985 15.935C20.2408 15.9353 20.4931 15.9946 20.7222 16.1082C20.9514 16.2219 21.1513 16.3868 21.3063 16.5903C21.4614 16.7937 21.5675 17.0301 21.6163 17.2812C21.6652 17.5323 21.6555 17.7913 21.588 18.038H18.373C18.334 17.8949 18.3138 17.7473 18.313 17.599C18.3146 17.1568 18.4915 16.7333 18.8049 16.4213C19.1184 16.1094 19.5428 15.9345 19.985 15.935Z" fill="url(#paint27_radial_1512_304)"/>
<path d="M19.0323 17.6C19.0318 17.4747 19.0561 17.3504 19.1038 17.2345C19.1515 17.1186 19.2216 17.0133 19.3102 16.9246C19.3988 16.8359 19.504 16.7656 19.6199 16.7178C19.7358 16.67 19.86 16.6456 19.9853 16.646C20.5143 16.646 20.9373 17.07 20.9373 17.599C20.9382 17.7518 20.9018 17.9025 20.8313 18.038H19.1453C19.0692 17.9044 19.0301 17.7538 19.0323 17.6Z" fill="black"/>
<g filter="url(#filter9_f_1512_304)">
<path d="M19.862 16.287C19.981 16.446 19.732 16.639 19.452 16.85C19.169 17.06 18.96 17.208 18.842 17.05C18.723 16.891 18.856 16.592 19.137 16.381C19.419 16.171 19.744 16.128 19.862 16.287Z" fill="#C7A7A3"/>
<path d="M19.862 16.287C19.981 16.446 19.732 16.639 19.452 16.85C19.169 17.06 18.96 17.208 18.842 17.05C18.723 16.891 18.856 16.592 19.137 16.381C19.419 16.171 19.744 16.128 19.862 16.287Z" fill="url(#paint28_radial_1512_304)"/>
</g>
<g filter="url(#filter10_f_1512_304)">
<path d="M21.4663 17.38C21.4173 17.0543 21.2668 16.7523 21.0363 16.517L20.5513 17.049L20.7693 17.475L21.4663 17.38Z" fill="url(#paint29_linear_1512_304)"/>
</g>
<path d="M11.4553 15.428C10.2373 15.428 9.20834 16.268 8.92934 17.403C8.91042 17.4786 8.90906 17.5575 8.92534 17.6338C8.94162 17.71 8.97512 17.7815 9.02328 17.8427C9.07143 17.904 9.13297 17.9535 9.20318 17.9873C9.27338 18.0212 9.3504 18.0385 9.42834 18.038H13.5883C13.6513 18.038 13.7135 18.0241 13.7706 17.9974C13.8276 17.9707 13.8781 17.9318 13.9185 17.8835C13.9588 17.8351 13.988 17.7785 14.0041 17.7176C14.0201 17.6567 14.0226 17.593 14.0113 17.531C13.8936 16.9394 13.5746 16.4067 13.1087 16.0236C12.6428 15.6404 12.0586 15.4293 11.4553 15.428Z" fill="white"/>
<path d="M11.8402 15.935C11.5844 15.9353 11.3321 15.9946 11.1029 16.1082C10.8738 16.2219 10.6739 16.3868 10.5188 16.5903C10.3638 16.7937 10.2577 17.0301 10.2088 17.2812C10.16 17.5323 10.1697 17.7913 10.2372 18.038H13.4512C13.4892 17.894 13.5122 17.75 13.5122 17.599C13.5093 17.1574 13.3321 16.7347 13.0191 16.4231C12.7062 16.1115 12.2818 15.936 11.8402 15.935Z" fill="url(#paint30_radial_1512_304)"/>
<path d="M12.7932 17.6C12.7939 17.4747 12.7697 17.3505 12.7221 17.2346C12.6745 17.1187 12.6045 17.0134 12.516 16.9247C12.4275 16.836 12.3223 16.7657 12.2065 16.7179C12.0906 16.67 11.9665 16.6456 11.8412 16.646C11.7159 16.6455 11.5917 16.6698 11.4757 16.7175C11.3598 16.7651 11.2545 16.8353 11.1658 16.9239C11.0771 17.0125 11.0069 17.1177 10.959 17.2336C10.9112 17.3495 10.8868 17.4737 10.8872 17.599C10.8872 17.759 10.9252 17.909 10.9932 18.038H12.6802C12.7532 17.9031 12.7924 17.7524 12.7942 17.599L12.7932 17.6Z" fill="black"/>
<g filter="url(#filter11_f_1512_304)">
<path d="M13.3601 17.404C13.3601 16.866 12.9231 16.508 12.8051 16.399L12.2681 16.919L12.5981 17.593L13.3611 17.403L13.3601 17.404Z" fill="url(#paint31_linear_1512_304)"/>
</g>
<g filter="url(#filter12_f_1512_304)">
<path d="M11.5105 16.9712C11.8648 16.7835 12.0749 16.4857 11.9798 16.3061C11.8846 16.1265 11.5203 16.1331 11.1659 16.3208C10.8116 16.5085 10.6015 16.8063 10.6967 16.9859C10.7918 17.1655 11.1562 17.1589 11.5105 16.9712Z" fill="#C7A7A3" fill-opacity="0.9"/>
<path d="M11.5105 16.9712C11.8648 16.7835 12.0749 16.4857 11.9798 16.3061C11.8846 16.1265 11.5203 16.1331 11.1659 16.3208C10.8116 16.5085 10.6015 16.8063 10.6967 16.9859C10.7918 17.1655 11.1562 17.1589 11.5105 16.9712Z" fill="url(#paint32_radial_1512_304)"/>
</g>
<path d="M25.0889 21.033C25.2119 19.049 25.3289 17.067 25.4329 15.083C26.1576 15.2099 26.8103 15.5987 27.2671 16.1755C27.7239 16.7522 27.9528 17.4767 27.9103 18.2112C27.8679 18.9457 27.557 19.6389 27.0368 20.1592C26.5166 20.6795 25.8234 20.9904 25.0889 21.033Z" fill="url(#paint33_linear_1512_304)"/>
<path d="M25.0889 21.033C25.2119 19.049 25.3289 17.067 25.4329 15.083C26.1576 15.2099 26.8103 15.5987 27.2671 16.1755C27.7239 16.7522 27.9528 17.4767 27.9103 18.2112C27.8679 18.9457 27.557 19.6389 27.0368 20.1592C26.5166 20.6795 25.8234 20.9904 25.0889 21.033Z" fill="url(#paint34_radial_1512_304)"/>
<path d="M25.0889 21.033C25.2119 19.049 25.3289 17.067 25.4329 15.083C26.1576 15.2099 26.8103 15.5987 27.2671 16.1755C27.7239 16.7522 27.9528 17.4767 27.9103 18.2112C27.8679 18.9457 27.557 19.6389 27.0368 20.1592C26.5166 20.6795 25.8234 20.9904 25.0889 21.033Z" fill="url(#paint35_radial_1512_304)"/>
<path d="M25.0889 21.033C25.2119 19.049 25.3289 17.067 25.4329 15.083C26.1576 15.2099 26.8103 15.5987 27.2671 16.1755C27.7239 16.7522 27.9528 17.4767 27.9103 18.2112C27.8679 18.9457 27.557 19.6389 27.0368 20.1592C26.5166 20.6795 25.8234 20.9904 25.0889 21.033Z" fill="url(#paint36_radial_1512_304)"/>
<path d="M6.50811 15.066C5.05111 15.272 3.91211 16.524 3.91211 18.038C3.91224 18.8052 4.20627 19.5431 4.73375 20.1002C5.26124 20.6573 5.98209 20.9911 6.74811 21.033C6.62811 19.041 6.54611 17.059 6.50811 15.066Z" fill="url(#paint37_linear_1512_304)"/>
<path d="M6.50811 15.066C5.05111 15.272 3.91211 16.524 3.91211 18.038C3.91224 18.8052 4.20627 19.5431 4.73375 20.1002C5.26124 20.6573 5.98209 20.9911 6.74811 21.033C6.62811 19.041 6.54611 17.059 6.50811 15.066Z" fill="url(#paint38_radial_1512_304)"/>
<g filter="url(#filter13_f_1512_304)">
<path d="M6.43133 16.299C6.02449 16.3919 5.66315 16.6246 5.41029 16.9565C5.15743 17.2885 5.0291 17.6987 5.04766 18.1156C5.06623 18.5325 5.23051 18.9296 5.51188 19.2378C5.79325 19.546 6.17385 19.7457 6.58733 19.802C6.52233 18.634 6.46733 17.467 6.43133 16.299Z" fill="url(#paint39_radial_1512_304)"/>
</g>
<g filter="url(#filter14_f_1512_304)">
<path d="M25.2451 19.832C25.3171 18.649 25.3871 17.467 25.4521 16.284C25.9003 16.3404 26.3104 16.565 26.5992 16.9124C26.888 17.2597 27.0341 17.7038 27.0077 18.1548C26.9814 18.6058 26.7847 19.0299 26.4575 19.3413C26.1302 19.6527 25.6968 19.8281 25.2451 19.832Z" fill="url(#paint40_linear_1512_304)"/>
</g>
<g filter="url(#filter15_f_1512_304)">
<path d="M9.62305 13.296C10.103 12.952 11.297 12.347 12.709 12.585" stroke="#353535" stroke-width="0.25" stroke-linecap="round"/>
</g>
<g filter="url(#filter16_f_1512_304)">
<path d="M22.5523 13.21C22.0723 12.866 20.8783 12.261 19.4663 12.499" stroke="#353535" stroke-width="0.25" stroke-linecap="round"/>
</g>
<defs>
<filter id="filter0_ii_1512_304" x="6.47217" y="7.028" width="20.0562" height="23.21" filterUnits="userSpaceOnUse" color-interpolation-filters="sRGB">
<feFlood flood-opacity="0" result="BackgroundImageFix"/>
<feBlend mode="normal" in="SourceGraphic" in2="BackgroundImageFix" result="shape"/>
<feColorMatrix in="SourceAlpha" type="matrix" values="0 0 0 0 0 0 0 0 0 0 0 0 0 0 0 0 0 0 127 0" result="hardAlpha"/>
<feOffset dx="1"/>
<feGaussianBlur stdDeviation="0.7"/>
<feComposite in2="hardAlpha" operator="arithmetic" k2="-1" k3="1"/>
<feColorMatrix type="matrix" values="0 0 0 0 0.913725 0 0 0 0 0.686275 0 0 0 0 0.592157 0 0 0 1 0"/>
<feBlend mode="normal" in2="shape" result="effect1_innerShadow_1512_304"/>
<feColorMatrix in="SourceAlpha" type="matrix" values="0 0 0 0 0 0 0 0 0 0 0 0 0 0 0 0 0 0 127 0" result="hardAlpha"/>
<feOffset dy="0.2"/>
<feGaussianBlur stdDeviation="0.375"/>
<feComposite in2="hardAlpha" operator="arithmetic" k2="-1" k3="1"/>
<feColorMatrix type="matrix" values="0 0 0 0 0.780392 0 0 0 0 0.568627 0 0 0 0 0.486275 0 0 0 1 0"/>
<feBlend mode="normal" in2="effect1_innerShadow_1512_304" result="effect2_innerShadow_1512_304"/>
</filter>
<filter id="filter1_f_1512_304" x="13.0195" y="15.986" width="5.25635" height="7.407" filterUnits="userSpaceOnUse" color-interpolation-filters="sRGB">
<feFlood flood-opacity="0" result="BackgroundImageFix"/>
<feBlend mode="normal" in="SourceGraphic" in2="BackgroundImageFix" result="shape"/>
<feGaussianBlur stdDeviation="0.5" result="effect1_foregroundBlur_1512_304"/>
</filter>
<filter id="filter2_f_1512_304" x="13.9631" y="16.4305" width="3.89951" height="5.8075" filterUnits="userSpaceOnUse" color-interpolation-filters="sRGB">
<feFlood flood-opacity="0" result="BackgroundImageFix"/>
<feBlend mode="normal" in="SourceGraphic" in2="BackgroundImageFix" result="shape"/>
<feGaussianBlur stdDeviation="0.1" result="effect1_foregroundBlur_1512_304"/>
</filter>
<filter id="filter3_f_1512_304" x="12.6617" y="23.0388" width="6.50078" height="2.49919" filterUnits="userSpaceOnUse" color-interpolation-filters="sRGB">
<feFlood flood-opacity="0" result="BackgroundImageFix"/>
<feBlend mode="normal" in="SourceGraphic" in2="BackgroundImageFix" result="shape"/>
<feGaussianBlur stdDeviation="0.05" result="effect1_foregroundBlur_1512_304"/>
</filter>
<filter id="filter4_ii_1512_304" x="3.91357" y="1.538" width="23.999" height="15.148" filterUnits="userSpaceOnUse" color-interpolation-filters="sRGB">
<feFlood flood-opacity="0" result="BackgroundImageFix"/>
<feBlend mode="normal" in="SourceGraphic" in2="BackgroundImageFix" result="shape"/>
<feColorMatrix in="SourceAlpha" type="matrix" values="0 0 0 0 0 0 0 0 0 0 0 0 0 0 0 0 0 0 127 0" result="hardAlpha"/>
<feOffset dy="-0.5"/>
<feGaussianBlur stdDeviation="0.625"/>
<feComposite in2="hardAlpha" operator="arithmetic" k2="-1" k3="1"/>
<feColorMatrix type="matrix" values="0 0 0 0 0.137255 0 0 0 0 0.0901961 0 0 0 0 0.145098 0 0 0 1 0"/>
<feBlend mode="normal" in2="shape" result="effect1_innerShadow_1512_304"/>
<feColorMatrix in="SourceAlpha" type="matrix" values="0 0 0 0 0 0 0 0 0 0 0 0 0 0 0 0 0 0 127 0" result="hardAlpha"/>
<feOffset dy="-0.2"/>
<feGaussianBlur stdDeviation="0.2"/>
<feComposite in2="hardAlpha" operator="arithmetic" k2="-1" k3="1"/>
<feColorMatrix type="matrix" values="0 0 0 0 0.0784314 0 0 0 0 0.0352941 0 0 0 0 0.0470588 0 0 0 1 0"/>
<feBlend mode="normal" in2="effect1_innerShadow_1512_304" result="effect2_innerShadow_1512_304"/>
</filter>
<filter id="filter5_i_1512_304" x="18.8755" y="11.8379" width="4.27432" height="2.0462" filterUnits="userSpaceOnUse" color-interpolation-filters="sRGB">
<feFlood flood-opacity="0" result="BackgroundImageFix"/>
<feBlend mode="normal" in="SourceGraphic" in2="BackgroundImageFix" result="shape"/>
<feColorMatrix in="SourceAlpha" type="matrix" values="0 0 0 0 0 0 0 0 0 0 0 0 0 0 0 0 0 0 127 0" result="hardAlpha"/>
<feOffset dx="0.1" dy="-0.2"/>
<feGaussianBlur stdDeviation="0.125"/>
<feComposite in2="hardAlpha" operator="arithmetic" k2="-1" k3="1"/>
<feColorMatrix type="matrix" values="0 0 0 0 0.0588235 0 0 0 0 0.054902 0 0 0 0 0.0588235 0 0 0 1 0"/>
<feBlend mode="normal" in2="shape" result="effect1_innerShadow_1512_304"/>
</filter>
<filter id="filter6_i_1512_304" x="9.07422" y="11.8656" width="4.27529" height="2.0196" filterUnits="userSpaceOnUse" color-interpolation-filters="sRGB">
<feFlood flood-opacity="0" result="BackgroundImageFix"/>
<feBlend mode="normal" in="SourceGraphic" in2="BackgroundImageFix" result="shape"/>
<feColorMatrix in="SourceAlpha" type="matrix" values="0 0 0 0 0 0 0 0 0 0 0 0 0 0 0 0 0 0 127 0" result="hardAlpha"/>
<feOffset dx="0.1" dy="-0.2"/>
<feGaussianBlur stdDeviation="0.125"/>
<feComposite in2="hardAlpha" operator="arithmetic" k2="-1" k3="1"/>
<feColorMatrix type="matrix" values="0 0 0 0 0.0588235 0 0 0 0 0.054902 0 0 0 0 0.0588235 0 0 0 1 0"/>
<feBlend mode="normal" in2="shape" result="effect1_innerShadow_1512_304"/>
</filter>
<filter id="filter7_if_1512_304" x="4.54199" y="3.10187" width="12.3428" height="11.2391" filterUnits="userSpaceOnUse" color-interpolation-filters="sRGB">
<feFlood flood-opacity="0" result="BackgroundImageFix"/>
<feBlend mode="normal" in="SourceGraphic" in2="BackgroundImageFix" result="shape"/>
<feColorMatrix in="SourceAlpha" type="matrix" values="0 0 0 0 0 0 0 0 0 0 0 0 0 0 0 0 0 0 127 0" result="hardAlpha"/>
<feOffset dx="0.4" dy="0.2"/>
<feGaussianBlur stdDeviation="0.2"/>
<feComposite in2="hardAlpha" operator="arithmetic" k2="-1" k3="1"/>
<feColorMatrix type="matrix" values="0 0 0 0 0.286275 0 0 0 0 0.243137 0 0 0 0 0.227451 0 0 0 1 0"/>
<feBlend mode="normal" in2="shape" result="effect1_innerShadow_1512_304"/>
<feGaussianBlur stdDeviation="0.25" result="effect2_foregroundBlur_1512_304"/>
</filter>
<filter id="filter8_f_1512_304" x="15.417" y="3.68857" width="12.0933" height="10.9654" filterUnits="userSpaceOnUse" color-interpolation-filters="sRGB">
<feFlood flood-opacity="0" result="BackgroundImageFix"/>
<feBlend mode="normal" in="SourceGraphic" in2="BackgroundImageFix" result="shape"/>
<feGaussianBlur stdDeviation="0.25" result="effect1_foregroundBlur_1512_304"/>
</filter>
<filter id="filter9_f_1512_304" x="18.6983" y="16.0909" width="1.29424" height="1.12533" filterUnits="userSpaceOnUse" color-interpolation-filters="sRGB">
<feFlood flood-opacity="0" result="BackgroundImageFix"/>
<feBlend mode="normal" in="SourceGraphic" in2="BackgroundImageFix" result="shape"/>
<feGaussianBlur stdDeviation="0.05" result="effect1_foregroundBlur_1512_304"/>
</filter>
<filter id="filter10_f_1512_304" x="20.3513" y="16.317" width="1.31504" height="1.358" filterUnits="userSpaceOnUse" color-interpolation-filters="sRGB">
<feFlood flood-opacity="0" result="BackgroundImageFix"/>
<feBlend mode="normal" in="SourceGraphic" in2="BackgroundImageFix" result="shape"/>
<feGaussianBlur stdDeviation="0.1" result="effect1_foregroundBlur_1512_304"/>
</filter>
<filter id="filter11_f_1512_304" x="12.0681" y="16.199" width="1.49277" height="1.594" filterUnits="userSpaceOnUse" color-interpolation-filters="sRGB">
<feFlood flood-opacity="0" result="BackgroundImageFix"/>
<feBlend mode="normal" in="SourceGraphic" in2="BackgroundImageFix" result="shape"/>
<feGaussianBlur stdDeviation="0.1" result="effect1_foregroundBlur_1512_304"/>
</filter>
<filter id="filter12_f_1512_304" x="10.5738" y="16.0756" width="1.52861" height="1.14076" filterUnits="userSpaceOnUse" color-interpolation-filters="sRGB">
<feFlood flood-opacity="0" result="BackgroundImageFix"/>
<feBlend mode="normal" in="SourceGraphic" in2="BackgroundImageFix" result="shape"/>
<feGaussianBlur stdDeviation="0.05" result="effect1_foregroundBlur_1512_304"/>
</filter>
<filter id="filter13_f_1512_304" x="4.7959" y="16.049" width="2.0415" height="4.003" filterUnits="userSpaceOnUse" color-interpolation-filters="sRGB">
<feFlood flood-opacity="0" result="BackgroundImageFix"/>
<feBlend mode="normal" in="SourceGraphic" in2="BackgroundImageFix" result="shape"/>
<feGaussianBlur stdDeviation="0.125" result="effect1_foregroundBlur_1512_304"/>
</filter>
<filter id="filter14_f_1512_304" x="24.7451" y="15.784" width="2.76562" height="4.548" filterUnits="userSpaceOnUse" color-interpolation-filters="sRGB">
<feFlood flood-opacity="0" result="BackgroundImageFix"/>
<feBlend mode="normal" in="SourceGraphic" in2="BackgroundImageFix" result="shape"/>
<feGaussianBlur stdDeviation="0.25" result="effect1_foregroundBlur_1512_304"/>
</filter>
<filter id="filter15_f_1512_304" x="9.24805" y="12.1559" width="3.83594" height="1.51508" filterUnits="userSpaceOnUse" color-interpolation-filters="sRGB">
<feFlood flood-opacity="0" result="BackgroundImageFix"/>
<feBlend mode="normal" in="SourceGraphic" in2="BackgroundImageFix" result="shape"/>
<feGaussianBlur stdDeviation="0.125" result="effect1_foregroundBlur_1512_304"/>
</filter>
<filter id="filter16_f_1512_304" x="19.0913" y="12.0699" width="3.83594" height="1.51508" filterUnits="userSpaceOnUse" color-interpolation-filters="sRGB">
<feFlood flood-opacity="0" result="BackgroundImageFix"/>
<feBlend mode="normal" in="SourceGraphic" in2="BackgroundImageFix" result="shape"/>
<feGaussianBlur stdDeviation="0.125" result="effect1_foregroundBlur_1512_304"/>
</filter>
<radialGradient id="paint0_radial_1512_304" cx="0" cy="0" r="1" gradientUnits="userSpaceOnUse" gradientTransform="translate(24.7751 20.288) rotate(69.6569) scale(4.01572 4.77036)">
<stop offset="0.215" stop-color="#313131"/>
<stop offset="1" stop-color="#1A161E"/>
</radialGradient>
<radialGradient id="paint1_radial_1512_304" cx="0" cy="0" r="1" gradientUnits="userSpaceOnUse" gradientTransform="translate(4.62011 21.202) rotate(17.4471) scale(2.88548 8.90191)">
<stop stop-color="#564943"/>
<stop offset="0.746" stop-color="#1E191C"/>
</radialGradient>
<radialGradient id="paint2_radial_1512_304" cx="0" cy="0" r="1" gradientUnits="userSpaceOnUse" gradientTransform="translate(21.1472 18.533) rotate(180) scale(9.74687 17.2421)">
<stop stop-color="#FFDCC0"/>
<stop offset="1" stop-color="#D6A195"/>
</radialGradient>
<linearGradient id="paint3_linear_1512_304" x1="25.5272" y1="21.675" x2="17.4122" y2="21.675" gradientUnits="userSpaceOnUse">
<stop stop-color="#FFD6BA"/>
<stop offset="1" stop-color="#FFD6BA" stop-opacity="0"/>
</linearGradient>
<radialGradient id="paint4_radial_1512_304" cx="0" cy="0" r="1" gradientUnits="userSpaceOnUse" gradientTransform="translate(18.8602 7.508) rotate(94.4701) scale(23.8774 19.7733)">
<stop offset="0.767" stop-color="#B57997" stop-opacity="0"/>
<stop offset="1" stop-color="#B57997"/>
</radialGradient>
<radialGradient id="paint5_radial_1512_304" cx="0" cy="0" r="1" gradientUnits="userSpaceOnUse" gradientTransform="translate(20.4752 16.085) rotate(-90) scale(2.141 2.64949)">
<stop offset="0.325" stop-color="#F6B8A8"/>
<stop offset="1" stop-color="#F6B8A8" stop-opacity="0"/>
</radialGradient>
<radialGradient id="paint6_radial_1512_304" cx="0" cy="0" r="1" gradientUnits="userSpaceOnUse" gradientTransform="translate(11.6242 16.172) rotate(-89.7941) scale(2.0402 2.22021)">
<stop offset="0.378" stop-color="#D39991"/>
<stop offset="1" stop-color="#D39991" stop-opacity="0"/>
</radialGradient>
<radialGradient id="paint7_radial_1512_304" cx="0" cy="0" r="1" gradientUnits="userSpaceOnUse" gradientTransform="translate(22.3127 20.3765) rotate(176.388) scale(15.8715 40.5438)">
<stop offset="0.836" stop-color="#E6AD97" stop-opacity="0"/>
<stop offset="1" stop-color="#E6AD97"/>
</radialGradient>
<radialGradient id="paint8_radial_1512_304" cx="0" cy="0" r="1" gradientUnits="userSpaceOnUse" gradientTransform="translate(5.71917 10.469) rotate(-46.6112) scale(8.40928 3.0784)">
<stop offset="0.428" stop-color="#9F6D5C"/>
<stop offset="1" stop-color="#9F6D5C" stop-opacity="0"/>
</radialGradient>
<radialGradient id="paint9_radial_1512_304" cx="0" cy="0" r="1" gradientUnits="userSpaceOnUse" gradientTransform="translate(20.4382 9.25) rotate(121.159) scale(6.28117 5.18563)">
<stop offset="0.078" stop-color="#F6C3B0"/>
<stop offset="1" stop-color="#F6C3B0" stop-opacity="0"/>
</radialGradient>
<linearGradient id="paint10_linear_1512_304" x1="17.4753" y1="19.791" x2="15.9123" y2="19.856" gradientUnits="userSpaceOnUse">
<stop offset="0.36" stop-color="#FFDFC7"/>
<stop offset="1" stop-color="#FFDFC7" stop-opacity="0"/>
</linearGradient>
<radialGradient id="paint11_radial_1512_304" cx="0" cy="0" r="1" gradientUnits="userSpaceOnUse" gradientTransform="translate(16.7823 21.07) rotate(90) scale(0.4551 1.43034)">
<stop stop-color="#FFDDC7"/>
<stop offset="1" stop-color="#FFDDC7" stop-opacity="0"/>
</radialGradient>
<linearGradient id="paint12_linear_1512_304" x1="15.9123" y1="21.915" x2="15.9123" y2="21.048" gradientUnits="userSpaceOnUse">
<stop stop-color="#D89793"/>
<stop offset="1" stop-color="#D89793" stop-opacity="0"/>
</linearGradient>
<radialGradient id="paint13_radial_1512_304" cx="0" cy="0" r="1" gradientUnits="userSpaceOnUse" gradientTransform="translate(16.9986 20.009) rotate(155.369) scale(3.11992 5.01397)">
<stop offset="0.714" stop-color="#D3968C" stop-opacity="0"/>
<stop offset="1" stop-color="#D3968C"/>
</radialGradient>
<linearGradient id="paint14_linear_1512_304" x1="15.9123" y1="16.631" x2="15.9123" y2="17.891" gradientUnits="userSpaceOnUse">
<stop stop-color="#E8BBA8"/>
<stop offset="1" stop-color="#E8BBA8" stop-opacity="0"/>
</linearGradient>
<linearGradient id="paint15_linear_1512_304" x1="13.672" y1="24.844" x2="14.266" y2="23.288" gradientUnits="userSpaceOnUse">
<stop stop-color="#E1ACA6"/>
<stop offset="1" stop-color="#E1ACA6" stop-opacity="0"/>
</linearGradient>
<radialGradient id="paint16_radial_1512_304" cx="0" cy="0" r="1" gradientUnits="userSpaceOnUse" gradientTransform="translate(15.9121 25.132) rotate(-90) scale(1.34375 5.40625)">
<stop stop-color="#88014E"/>
<stop offset="1" stop-color="#86004D"/>
</radialGradient>
<linearGradient id="paint17_linear_1512_304" x1="28.6873" y1="7.975" x2="7.03727" y2="7.975" gradientUnits="userSpaceOnUse">
<stop stop-color="#443D40"/>
<stop offset="1" stop-color="#272127"/>
</linearGradient>
<radialGradient id="paint18_radial_1512_304" cx="0" cy="0" r="1" gradientUnits="userSpaceOnUse" gradientTransform="translate(6.16227 13.14) rotate(-90) scale(6.52791 16.5083)">
<stop offset="0.536" stop-color="#3E3433"/>
<stop offset="1" stop-color="#3E3433" stop-opacity="0"/>
</radialGradient>
<radialGradient id="paint19_radial_1512_304" cx="0" cy="0" r="1" gradientUnits="userSpaceOnUse" gradientTransform="translate(24.9739 15.583) rotate(-87.401) scale(4.68924 8.30841)">
<stop stop-color="#4F4D4D"/>
<stop offset="1" stop-color="#4F4D4D" stop-opacity="0"/>
</radialGradient>
<radialGradient id="paint20_radial_1512_304" cx="0" cy="0" r="1" gradientUnits="userSpaceOnUse" gradientTransform="translate(23.5682 3.8817) rotate(-146.667) scale(5.26377 3.86388)">
<stop stop-color="#5E5A5B"/>
<stop offset="1" stop-color="#5E5A5B" stop-opacity="0"/>
</radialGradient>
<radialGradient id="paint21_radial_1512_304" cx="0" cy="0" r="1" gradientUnits="userSpaceOnUse" gradientTransform="translate(14.2253 0.913002) rotate(58.4652) scale(3.22648 7.47101)">
<stop offset="0.287" stop-color="#484646"/>
<stop offset="1" stop-color="#484646" stop-opacity="0"/>
</radialGradient>
<radialGradient id="paint22_radial_1512_304" cx="0" cy="0" r="1" gradientUnits="userSpaceOnUse" gradientTransform="translate(16.385 5.125) rotate(180) scale(4.10381 1.52308)">
<stop stop-color="#423C3F"/>
<stop offset="1" stop-color="#423C3F" stop-opacity="0"/>
</radialGradient>
<radialGradient id="paint23_radial_1512_304" cx="0" cy="0" r="1" gradientUnits="userSpaceOnUse" gradientTransform="translate(5.78699 12.475) rotate(-57.7244) scale(11.2361 12.4484)">
<stop offset="0.093" stop-color="#0B0306"/>
<stop offset="0.311" stop-color="#1C0C20"/>
<stop offset="1" stop-color="#1C0C20" stop-opacity="0"/>
</radialGradient>
<radialGradient id="paint24_radial_1512_304" cx="0" cy="0" r="1" gradientUnits="userSpaceOnUse" gradientTransform="translate(22.2773 6.573) scale(5.70209 2.22942)">
<stop stop-color="#4E494B"/>
<stop offset="1" stop-color="#4E494B" stop-opacity="0"/>
</radialGradient>
<radialGradient id="paint25_radial_1512_304" cx="0" cy="0" r="1" gradientUnits="userSpaceOnUse" gradientTransform="translate(20.8233 12.236) rotate(-43.6141) scale(6.89811 12.6287)">
<stop offset="0.857" stop-color="#545051" stop-opacity="0"/>
<stop offset="1" stop-color="#545051"/>
</radialGradient>
<radialGradient id="paint26_radial_1512_304" cx="0" cy="0" r="1" gradientUnits="userSpaceOnUse" gradientTransform="translate(19.1703 9.483) rotate(6.6667) scale(6.09724 2.5528)">
<stop stop-color="#200E25"/>
<stop offset="1" stop-color="#200E25" stop-opacity="0"/>
</radialGradient>
<radialGradient id="paint27_radial_1512_304" cx="0" cy="0" r="1" gradientUnits="userSpaceOnUse" gradientTransform="translate(19.98 16.825) rotate(90) scale(1.51263 2.40601)">
<stop offset="0.802" stop-color="#7D574A"/>
<stop offset="1" stop-color="#664842"/>
</radialGradient>
<radialGradient id="paint28_radial_1512_304" cx="0" cy="0" r="1" gradientUnits="userSpaceOnUse" gradientTransform="translate(19.5551 16.9814) rotate(-127.812) scale(0.70528 0.97101)">
<stop offset="0.766" stop-color="#FFE6E2" stop-opacity="0"/>
<stop offset="0.966" stop-color="#FFE6E2"/>
</radialGradient>
<linearGradient id="paint29_linear_1512_304" x1="21.4313" y1="16.925" x2="20.8463" y2="17.286" gradientUnits="userSpaceOnUse">
<stop stop-color="#B4948D"/>
<stop offset="1" stop-color="#B4948D" stop-opacity="0"/>
</linearGradient>
<radialGradient id="paint30_radial_1512_304" cx="0" cy="0" r="1" gradientUnits="userSpaceOnUse" gradientTransform="translate(11.8442 16.825) rotate(90) scale(1.51271 2.40614)">
<stop offset="0.802" stop-color="#7D574A"/>
<stop offset="1" stop-color="#664842"/>
</radialGradient>
<linearGradient id="paint31_linear_1512_304" x1="13.2311" y1="16.925" x2="12.6461" y2="17.286" gradientUnits="userSpaceOnUse">
<stop stop-color="#B4948D"/>
<stop offset="1" stop-color="#B4948D" stop-opacity="0"/>
</linearGradient>
<radialGradient id="paint32_radial_1512_304" cx="0" cy="0" r="1" gradientUnits="userSpaceOnUse" gradientTransform="translate(11.5885 17.1788) rotate(-118.811) scale(0.92129 1.10743)">
<stop offset="0.766" stop-color="#FFE6E2" stop-opacity="0"/>
<stop offset="0.966" stop-color="#FFE6E2"/>
</radialGradient>
<linearGradient id="paint33_linear_1512_304" x1="27.9119" y1="16.975" x2="25.6619" y2="21.033" gradientUnits="userSpaceOnUse">
<stop stop-color="#FFD6BD"/>
<stop offset="1" stop-color="#F0B8A6"/>
</linearGradient>
<radialGradient id="paint34_radial_1512_304" cx="0" cy="0" r="1" gradientUnits="userSpaceOnUse" gradientTransform="translate(24.5215 16.8509) rotate(74.347) scale(4.34346 4.144)">
<stop offset="0.856" stop-color="#CE978E" stop-opacity="0"/>
<stop offset="1" stop-color="#CE978E"/>
</radialGradient>
<radialGradient id="paint35_radial_1512_304" cx="0" cy="0" r="1" gradientUnits="userSpaceOnUse" gradientTransform="translate(25.1939 17.866) rotate(-53.9199) scale(2.49399 2.09046)">
<stop offset="0.664" stop-color="#F7B99C"/>
<stop offset="1" stop-color="#F7B99C" stop-opacity="0"/>
</radialGradient>
<radialGradient id="paint36_radial_1512_304" cx="0" cy="0" r="1" gradientUnits="userSpaceOnUse" gradientTransform="translate(25.4059 18.188) rotate(-69.2631) scale(3.09086 4.12982)">
<stop offset="0.803" stop-color="#EBBB9D" stop-opacity="0"/>
<stop offset="1" stop-color="#EBBB9D"/>
</radialGradient>
<linearGradient id="paint37_linear_1512_304" x1="5.00611" y1="18.288" x2="7.72511" y2="18.05" gradientUnits="userSpaceOnUse">
<stop stop-color="#D19787"/>
<stop offset="1" stop-color="#C9887D"/>
</linearGradient>
<radialGradient id="paint38_radial_1512_304" cx="0" cy="0" r="1" gradientUnits="userSpaceOnUse" gradientTransform="translate(6.74746 18.0507) rotate(-173.034) scale(3.02997 3.25254)">
<stop offset="0.775" stop-color="#E8AF99" stop-opacity="0"/>
<stop offset="1" stop-color="#E8AF99"/>
</radialGradient>
<radialGradient id="paint39_radial_1512_304" cx="0" cy="0" r="1" gradientUnits="userSpaceOnUse" gradientTransform="translate(6.75033 18.05) rotate(170.26) scale(1.73369 2.12733)">
<stop stop-color="#C18472"/>
<stop offset="1" stop-color="#CA8B7A"/>
</radialGradient>
<linearGradient id="paint40_linear_1512_304" x1="26.1281" y1="16.284" x2="26.1281" y2="19.832" gradientUnits="userSpaceOnUse">
<stop stop-color="#F9BB9E"/>
<stop offset="1" stop-color="#F6BBA0"/>
</linearGradient>
</defs>
</svg>
